<svg width="127" height="44" viewBox="0 0 127 44" fill="none" xmlns="http://www.w3.org/2000/svg">
<path fill-rule="evenodd" clip-rule="evenodd" d="M5.5459 1.29297C6.71387 1.32682 7.67024 1.34375 8.41504 1.34375C9.15983 1.34375 10.1162 1.32682 11.2842 1.29297C12.4522 1.25911 13.3577 1.24219 14.001 1.24219C14.4242 1.24219 15.0081 1.14909 15.7529 0.962891L16.2354 4.59375C16.1169 4.71224 15.9137 4.77148 15.626 4.77148C15.4736 4.77148 15.389 4.72917 15.3721 4.64453C15.1351 3.69661 14.8431 3.08301 14.4961 2.80371C14.1491 2.52441 13.4932 2.38477 12.5283 2.38477C10.734 2.38477 9.80306 2.51172 9.73535 2.76562C9.58301 3.30729 9.50684 4.15364 9.50684 5.30469V14.4707C9.50684 15.4525 9.58301 16.2396 9.73535 16.832C9.76921 16.9505 10.0062 17.0648 10.4463 17.1748C10.8864 17.2848 11.1911 17.3398 11.3604 17.3398C11.4281 17.3398 11.4619 17.4668 11.4619 17.7207C11.4619 17.8561 11.445 17.9746 11.4111 18.0762C9.71842 17.9915 8.73666 17.9492 8.46582 17.9492C8.38118 17.9492 7.36557 17.9915 5.41895 18.0762C5.35124 18.0085 5.31738 17.8815 5.31738 17.6953C5.31738 17.4583 5.35124 17.3398 5.41895 17.3398C5.639 17.3398 5.96484 17.2891 6.39648 17.1875C6.82813 17.0859 7.06934 16.9674 7.12012 16.832C7.23861 16.375 7.29785 15.6217 7.29785 14.5723V5.38086C7.29785 3.9082 7.22168 3.03646 7.06934 2.76562C6.93392 2.51172 6.01987 2.38477 4.32715 2.38477C3.3623 2.38477 2.70638 2.52441 2.35938 2.80371C2.01237 3.08301 1.72038 3.69661 1.4834 4.64453C1.46647 4.72917 1.38184 4.77148 1.22949 4.77148C0.94173 4.77148 0.738607 4.71224 0.620117 4.59375L1.10254 0.962891C1.84733 1.14909 2.43131 1.24219 2.85449 1.24219C3.49772 1.24219 4.39485 1.25911 5.5459 1.29297ZM24.5674 6.87891C25.7015 6.87891 26.514 7.28515 27.0049 8.09766C27.4958 8.91016 27.7412 10.1628 27.7412 11.8555V14.5977C27.7412 15.5625 27.8089 16.3073 27.9443 16.832C27.9782 16.9505 28.1982 17.0648 28.6045 17.1748C29.0107 17.2848 29.2985 17.3398 29.4678 17.3398C29.5186 17.3398 29.5524 17.4414 29.5693 17.6445C29.5863 17.8477 29.5778 17.9915 29.5439 18.0762C27.8512 17.9915 26.9456 17.9492 26.8271 17.9492C26.7764 17.9492 25.8877 17.9915 24.1611 18.0762C24.0934 18.0085 24.0596 17.8688 24.0596 17.6572C24.0596 17.4456 24.0934 17.3398 24.1611 17.3398C24.3643 17.3398 24.6478 17.2848 25.0117 17.1748C25.3757 17.0648 25.5745 16.9505 25.6084 16.832C25.7269 16.3411 25.7861 15.7487 25.7861 15.0547V12.3633C25.7861 10.806 25.5703 9.76075 25.1387 9.22754C24.707 8.69433 24.0426 8.42773 23.1455 8.42773C22.6377 8.42773 22.1341 8.62663 21.6348 9.02441C21.1354 9.4222 20.8857 9.77344 20.8857 10.0781V14.5723C20.8857 15.554 20.9534 16.3073 21.0889 16.832C21.1227 16.9505 21.3428 17.0648 21.749 17.1748C22.1553 17.2848 22.443 17.3398 22.6123 17.3398C22.6631 17.3398 22.6969 17.4414 22.7139 17.6445C22.7308 17.8477 22.7223 17.9915 22.6885 18.0762C20.9958 17.9915 20.0902 17.9492 19.9717 17.9492C19.8701 17.9492 18.9476 17.9915 17.2041 18.0762C17.1364 18.0085 17.1025 17.8688 17.1025 17.6572C17.1025 17.4456 17.1364 17.3398 17.2041 17.3398C17.4072 17.3398 17.7077 17.2848 18.1055 17.1748C18.5033 17.0648 18.7191 16.9505 18.7529 16.832C18.8714 16.3411 18.9307 15.7572 18.9307 15.0801V4.06055C18.9307 3.48502 18.8799 2.94336 18.7783 2.43555C18.6937 2.16471 18.262 2.0293 17.4834 2.0293H17.2549C17.1533 2.0293 17.1025 1.9362 17.1025 1.75C17.1025 1.47917 17.1533 1.34375 17.2549 1.34375C17.7627 1.29297 18.2324 1.22526 18.6641 1.14062C19.0957 1.05599 19.4342 0.971355 19.6797 0.886719C19.9251 0.802083 20.1325 0.72168 20.3018 0.645508C20.471 0.569336 20.5895 0.50586 20.6572 0.455078L20.7842 0.378906H20.835C20.9027 0.378906 20.9704 0.425455 21.0381 0.518555C21.1058 0.611654 21.1481 0.70052 21.165 0.785156C20.9788 1.32683 20.8857 2.06315 20.8857 2.99414V8.55469C20.8857 8.6224 20.9027 8.65625 20.9365 8.65625C20.9535 8.65625 20.9788 8.63932 21.0127 8.60547C21.3851 8.19922 21.9141 7.8099 22.5996 7.4375C23.2852 7.0651 23.9411 6.87891 24.5674 6.87891ZM35.5654 7.86914C34.6852 7.86914 34.0124 8.24576 33.5469 8.99902C33.0814 9.75228 32.8486 10.3743 32.8486 10.8652C32.8486 10.9837 32.8994 11.043 33.001 11.043H37.9521C38.0368 11.043 38.0791 10.9583 38.0791 10.7891C38.0791 10.2474 37.8506 9.62533 37.3936 8.92285C36.9365 8.22037 36.3272 7.86914 35.5654 7.86914ZM35.8193 6.92969C36.598 6.92969 37.2835 7.0778 37.876 7.37402C38.4684 7.67025 38.9212 8.0511 39.2344 8.5166C39.5475 8.9821 39.776 9.45605 39.9199 9.93848C40.0638 10.4209 40.1357 10.8991 40.1357 11.373C40.1357 11.7116 40.085 11.9189 39.9834 11.9951C39.8818 12.0713 39.6872 12.1094 39.3994 12.1094H33.001C32.8656 12.1094 32.7979 12.1517 32.7979 12.2363C32.7979 13.3027 33.1195 14.2845 33.7627 15.1816C34.4059 16.0788 35.3369 16.5273 36.5557 16.5273C36.9111 16.5273 37.2497 16.4935 37.5713 16.4258C37.8929 16.3581 38.168 16.2777 38.3965 16.1846C38.625 16.0915 38.8197 15.9984 38.9805 15.9053C39.1413 15.8122 39.2809 15.7233 39.3994 15.6387L39.5771 15.5117C39.6787 15.5117 39.7295 15.6217 39.7295 15.8418C39.7295 15.9772 39.6787 16.1296 39.5771 16.2988C39.2386 16.7728 38.7393 17.2002 38.0791 17.5811C37.4189 17.9619 36.6995 18.1523 35.9209 18.1523C34.5159 18.1523 33.3099 17.6234 32.3027 16.5654C31.2956 15.5075 30.792 14.2168 30.792 12.6934C30.792 10.916 31.2702 9.51107 32.2266 8.47852C33.1829 7.44596 34.3805 6.92969 35.8193 6.92969ZM49.5381 1.31836C49.9443 1.31836 50.9938 1.27604 52.6865 1.19141C52.7204 1.25911 52.7331 1.39876 52.7246 1.61035C52.7161 1.82194 52.6865 1.92773 52.6357 1.92773C52.5173 1.92773 52.3564 1.94466 52.1533 1.97852C51.9502 2.01237 51.7301 2.097 51.4932 2.23242C51.2562 2.36784 51.1377 2.54557 51.1377 2.76562C51.1377 3.25651 52.2041 6.1087 54.3369 11.3223C54.7939 12.4733 55.1579 13.3704 55.4287 14.0137C55.4795 14.0983 55.5514 14.1195 55.6445 14.0771C55.7376 14.0348 55.8011 13.9714 55.835 13.8867L59.6436 4.69531C59.9652 3.86588 60.126 3.27344 60.126 2.91797C60.126 2.68099 59.9906 2.47787 59.7197 2.30859C59.4489 2.13932 59.1908 2.03353 58.9453 1.99121C58.6999 1.94889 58.501 1.92773 58.3486 1.92773C58.2809 1.92773 58.2471 1.82194 58.2471 1.61035C58.2471 1.39876 58.2809 1.25911 58.3486 1.19141C59.9229 1.27604 60.8284 1.31836 61.0654 1.31836C61.0824 1.31836 61.9372 1.27604 63.6299 1.19141C63.6637 1.29297 63.6807 1.41992 63.6807 1.57227C63.6807 1.80925 63.6468 1.92773 63.5791 1.92773C62.8174 1.92773 62.3096 2.16471 62.0557 2.63867C61.6663 3.34961 61.2516 4.22135 60.8115 5.25391L55.7334 17.3906C55.5133 17.9492 55.2171 18.2285 54.8447 18.2285C54.7262 18.2285 54.6416 18.1777 54.5908 18.0762L49.3857 4.94922C48.9626 3.83203 48.5817 3.01953 48.2432 2.51172C48.1247 2.32552 47.8792 2.18164 47.5068 2.08008C47.1344 1.97852 46.8382 1.92773 46.6182 1.92773C46.5505 1.92773 46.5166 1.81771 46.5166 1.59766C46.5166 1.39453 46.5505 1.25911 46.6182 1.19141C46.889 1.20833 47.2106 1.22526 47.583 1.24219C47.9554 1.25911 48.2897 1.27604 48.5859 1.29297C48.8822 1.3099 49.1995 1.31836 49.5381 1.31836ZM65.1006 3.85742C64.8636 3.60351 64.7451 3.29883 64.7451 2.94336C64.7451 2.58789 64.8678 2.28744 65.1133 2.04199C65.3587 1.79655 65.6592 1.67383 66.0146 1.67383C66.3701 1.67383 66.6706 1.79655 66.916 2.04199C67.1615 2.28744 67.2842 2.58789 67.2842 2.94336C67.2842 3.29883 67.1615 3.59928 66.916 3.84473C66.6706 4.09017 66.3701 4.21289 66.0146 4.21289C65.6592 4.21289 65.3545 4.0944 65.1006 3.85742ZM67.1826 14.5723C67.1826 15.554 67.2503 16.3073 67.3857 16.832C67.4196 16.9505 67.6396 17.0648 68.0459 17.1748C68.4521 17.2848 68.7399 17.3398 68.9092 17.3398C68.96 17.3398 68.9938 17.4414 69.0107 17.6445C69.0277 17.8477 69.0192 17.9915 68.9854 18.0762C67.2926 17.9915 66.387 17.9492 66.2686 17.9492C66.1501 17.9492 65.2275 17.9915 63.501 18.0762C63.4333 18.0085 63.3994 17.8688 63.3994 17.6572C63.3994 17.4456 63.4333 17.3398 63.501 17.3398C63.7041 17.3398 64.0046 17.2848 64.4023 17.1748C64.8001 17.0648 65.016 16.9505 65.0498 16.832C65.1683 16.3411 65.2275 15.7487 65.2275 15.0547V10.2559C65.2275 9.5957 65.109 9.13867 64.8721 8.88477C64.7028 8.68164 64.4954 8.54199 64.25 8.46582C64.0046 8.38965 63.8014 8.35156 63.6406 8.35156C63.4798 8.35156 63.3994 8.33464 63.3994 8.30078C63.3994 7.89453 63.4502 7.68294 63.5518 7.66602C65.346 7.39518 66.514 7.17513 67.0557 7.00586L67.1064 6.98047H67.1826C67.2503 6.98047 67.2926 7.05241 67.3096 7.19629C67.3265 7.34017 67.3265 7.44596 67.3096 7.51367C67.2249 8.19076 67.1826 8.80013 67.1826 9.3418V14.5723ZM75.0322 6.92969C76.8942 6.92969 78.1807 7.36132 78.8916 8.22461C78.8916 9.35873 78.5785 9.92578 77.9521 9.92578C77.6644 9.92578 77.4443 9.86231 77.292 9.73535C77.1396 9.6084 76.945 9.37565 76.708 9.03711C76.1833 8.25846 75.557 7.86914 74.8291 7.86914C74.1351 7.86914 73.5046 8.19922 72.9375 8.85938C72.3704 9.51953 72.0869 10.5013 72.0869 11.8047C72.0869 13.1589 72.4212 14.2845 73.0898 15.1816C73.7585 16.0788 74.6852 16.5273 75.8701 16.5273C76.2256 16.5273 76.5641 16.4935 76.8857 16.4258C77.2074 16.3581 77.4824 16.2777 77.7109 16.1846C77.9395 16.0915 78.1341 15.9984 78.2949 15.9053C78.4557 15.8122 78.5954 15.7233 78.7139 15.6387L78.8916 15.5117C78.9932 15.5117 79.0439 15.6217 79.0439 15.8418C79.0439 15.9772 78.9932 16.1296 78.8916 16.2988C78.5531 16.7728 78.0537 17.2002 77.3936 17.5811C76.7334 17.9619 76.014 18.1523 75.2354 18.1523C73.8304 18.1523 72.6244 17.6234 71.6172 16.5654C70.61 15.5075 70.1064 14.2168 70.1064 12.6934C70.1064 11.1361 70.5296 9.78614 71.376 8.64355C72.2223 7.50097 73.4411 6.92969 75.0322 6.92969ZM81.2314 8.50391H79.7588C79.6742 8.50391 79.6318 8.32617 79.6318 7.9707C79.6318 7.86914 79.6403 7.8099 79.6572 7.79297C80.1481 7.57292 80.6813 7.12435 81.2568 6.44727C81.443 6.22721 81.625 5.97754 81.8027 5.69824C81.9805 5.41894 82.1286 5.17774 82.2471 4.97461C82.3656 4.77148 82.4248 4.66146 82.4248 4.64453C82.9326 4.64453 83.1865 4.68685 83.1865 4.77148V7.28516C83.6266 7.28516 84.2952 7.28939 85.1924 7.29785C86.0895 7.30631 86.5635 7.31055 86.6143 7.31055C86.7497 7.31055 86.8174 7.38672 86.8174 7.53906C86.8174 7.84375 86.7327 8.16536 86.5635 8.50391H83.1865V14.7246C83.1865 15.4017 83.36 15.9434 83.707 16.3496C84.054 16.7559 84.5068 16.959 85.0654 16.959C85.5732 16.959 86.098 16.7982 86.6396 16.4766C86.6904 16.4427 86.7666 16.5146 86.8682 16.6924C86.9697 16.8701 87.012 16.9674 86.9951 16.9844C86.7412 17.2552 86.3519 17.5218 85.8271 17.7842C85.3024 18.0466 84.7607 18.1777 84.2021 18.1777C83.3558 18.1777 82.6491 17.8984 82.082 17.3398C81.515 16.7812 81.2314 15.9857 81.2314 14.9531V8.50391ZM93.0928 7.89453C92.1956 7.89453 91.4635 8.30501 90.8965 9.12598C90.3294 9.94694 90.0459 10.9499 90.0459 12.1348C90.0459 13.5228 90.4056 14.7119 91.125 15.7021C91.8444 16.6924 92.6865 17.1875 93.6514 17.1875C94.5485 17.1875 95.2848 16.7643 95.8604 15.918C96.4359 15.0716 96.7236 14.056 96.7236 12.8711C96.7236 11.5 96.3597 10.3278 95.6318 9.35449C94.904 8.38118 94.0576 7.89453 93.0928 7.89453ZM93.3721 6.9043C94.8955 6.9043 96.1989 7.45442 97.2822 8.55469C98.3656 9.65495 98.9072 10.9753 98.9072 12.5156C98.9072 14.0729 98.3783 15.4059 97.3203 16.5146C96.2624 17.6234 94.9632 18.1777 93.4229 18.1777C91.8825 18.1777 90.5706 17.6234 89.4873 16.5146C88.404 15.4059 87.8623 14.0729 87.8623 12.5156C87.8623 10.9414 88.387 9.61264 89.4365 8.5293C90.486 7.44596 91.7978 6.9043 93.3721 6.9043ZM107.062 6.9043C108.06 6.9043 108.72 7.14974 109.042 7.64062C109.042 8.23308 108.949 8.66471 108.763 8.93555C108.576 9.20638 108.348 9.3418 108.077 9.3418C107.772 9.3418 107.493 9.19792 107.239 8.91016C106.985 8.62239 106.638 8.47852 106.198 8.47852C105.674 8.47852 105.216 8.72396 104.827 9.21484C104.438 9.70573 104.243 10.222 104.243 10.7637V14.5723C104.243 15.554 104.311 16.3073 104.446 16.832C104.48 16.9505 104.704 17.0648 105.119 17.1748C105.534 17.2848 105.826 17.3398 105.995 17.3398C106.046 17.3398 106.08 17.4414 106.097 17.6445C106.114 17.8477 106.105 17.9915 106.071 18.0762C104.379 17.9915 103.465 17.9492 103.329 17.9492C103.228 17.9492 102.305 17.9915 100.562 18.0762C100.494 18.0085 100.46 17.8688 100.46 17.6572C100.46 17.4456 100.494 17.3398 100.562 17.3398C100.765 17.3398 101.065 17.2848 101.463 17.1748C101.861 17.0648 102.076 16.9505 102.11 16.832C102.229 16.3411 102.288 15.7487 102.288 15.0547V10.2559C102.288 9.5957 102.17 9.13867 101.933 8.88477C101.763 8.68164 101.556 8.54199 101.311 8.46582C101.065 8.38965 100.862 8.35156 100.701 8.35156C100.54 8.35156 100.46 8.33464 100.46 8.30078C100.46 7.89453 100.511 7.68294 100.612 7.66602C102.407 7.39518 103.575 7.17513 104.116 7.00586C104.133 7.00586 104.159 7.00163 104.192 6.99316L104.243 6.98047C104.311 6.98047 104.353 7.05241 104.37 7.19629C104.387 7.34017 104.387 7.44596 104.37 7.51367L104.218 8.7832C104.522 8.32617 104.941 7.89877 105.475 7.50098C106.008 7.10319 106.537 6.9043 107.062 6.9043ZM111.534 3.85742C111.297 3.60351 111.179 3.29883 111.179 2.94336C111.179 2.58789 111.301 2.28744 111.547 2.04199C111.792 1.79655 112.093 1.67383 112.448 1.67383C112.804 1.67383 113.104 1.79655 113.35 2.04199C113.595 2.28744 113.718 2.58789 113.718 2.94336C113.718 3.29883 113.595 3.59928 113.35 3.84473C113.104 4.09017 112.804 4.21289 112.448 4.21289C112.093 4.21289 111.788 4.0944 111.534 3.85742ZM113.616 14.5723C113.616 15.554 113.684 16.3073 113.819 16.832C113.853 16.9505 114.073 17.0648 114.479 17.1748C114.886 17.2848 115.174 17.3398 115.343 17.3398C115.394 17.3398 115.427 17.4414 115.444 17.6445C115.461 17.8477 115.453 17.9915 115.419 18.0762C113.726 17.9915 112.821 17.9492 112.702 17.9492C112.584 17.9492 111.661 17.9915 109.935 18.0762C109.867 18.0085 109.833 17.8688 109.833 17.6572C109.833 17.4456 109.867 17.3398 109.935 17.3398C110.138 17.3398 110.438 17.2848 110.836 17.1748C111.234 17.0648 111.45 16.9505 111.483 16.832C111.602 16.3411 111.661 15.7487 111.661 15.0547V10.2559C111.661 9.5957 111.543 9.13867 111.306 8.88477C111.136 8.68164 110.929 8.54199 110.684 8.46582C110.438 8.38965 110.235 8.35156 110.074 8.35156C109.913 8.35156 109.833 8.33464 109.833 8.30078C109.833 7.89453 109.884 7.68294 109.985 7.66602C111.78 7.39518 112.948 7.17513 113.489 7.00586L113.54 6.98047H113.616C113.684 6.98047 113.726 7.05241 113.743 7.19629C113.76 7.34017 113.76 7.44596 113.743 7.51367C113.659 8.19076 113.616 8.80013 113.616 9.3418V14.5723ZM119.155 16.375C119.443 16.612 119.815 16.7305 120.272 16.7305C120.729 16.7305 121.17 16.5908 121.593 16.3115C122.016 16.0322 122.228 15.7487 122.228 15.4609V12.8457C122.092 12.9134 121.762 13.0319 121.237 13.2012C120.713 13.3704 120.302 13.5186 120.006 13.6455C119.71 13.7725 119.422 13.984 119.143 14.2803C118.863 14.5765 118.724 14.9193 118.724 15.3086C118.724 15.7656 118.868 16.1211 119.155 16.375ZM121.542 6.92969C122.473 6.92969 123.142 7.15397 123.548 7.60254C123.954 8.05111 124.157 8.77473 124.157 9.77344V15.6387C124.157 15.9941 124.25 16.2904 124.437 16.5273C124.623 16.7643 124.877 16.8828 125.198 16.8828C125.435 16.8828 125.731 16.7643 126.087 16.5273C126.155 16.5273 126.188 16.5951 126.188 16.7305C126.188 16.9505 126.146 17.1283 126.062 17.2637C125.368 17.8561 124.775 18.1523 124.284 18.1523C123.895 18.1523 123.522 17.9915 123.167 17.6699C122.812 17.3483 122.566 17.0098 122.431 16.6543C122.414 16.6543 122.35 16.7093 122.24 16.8193C122.13 16.9294 121.982 17.0563 121.796 17.2002C121.61 17.3441 121.394 17.4922 121.148 17.6445C120.903 17.7969 120.615 17.9238 120.285 18.0254C119.955 18.127 119.621 18.1777 119.282 18.1777C118.504 18.1777 117.86 17.9704 117.353 17.5557C116.845 17.1409 116.591 16.5189 116.591 15.6895C116.591 15.3171 116.684 14.9658 116.87 14.6357C117.056 14.3057 117.276 14.0348 117.53 13.8232C117.784 13.6117 118.131 13.3958 118.571 13.1758C119.011 12.9557 119.388 12.7907 119.701 12.6807C120.014 12.5706 120.425 12.431 120.933 12.2617C121.44 12.0924 121.796 11.9655 121.999 11.8809C122.151 11.8301 122.228 11.7031 122.228 11.5V9.5957C122.228 9.05403 122.058 8.63509 121.72 8.33887C121.381 8.04264 120.975 7.89453 120.501 7.89453C119.993 7.89453 119.57 8.06803 119.231 8.41504C118.893 8.76205 118.724 9.21484 118.724 9.77344C118.724 10.3659 118.377 10.6621 117.683 10.6621C117.209 10.6621 116.879 10.5013 116.692 10.1797C116.692 9.45182 117.226 8.72819 118.292 8.00879C119.358 7.28938 120.442 6.92969 121.542 6.92969ZM15.4873 34.8242C15.4873 32.4206 16.2913 30.3597 17.8994 28.6416C19.5075 26.9235 21.4795 26.0645 23.8154 26.0645C25.0173 26.0645 27.0231 26.4453 29.833 27.207C29.9007 29.1367 29.9346 30.1862 29.9346 30.3555C29.9346 30.6094 29.7568 30.7363 29.4014 30.7363C29.2321 30.7363 29.1221 30.694 29.0713 30.6094C28.6143 28.2904 26.8877 27.1309 23.8916 27.1309C22.1989 27.1309 20.7855 27.8503 19.6514 29.2891C18.5172 30.7279 17.9502 32.4629 17.9502 34.4941C17.9502 36.3731 18.5723 38.1038 19.8164 39.6865C21.0606 41.2692 22.6221 42.0605 24.501 42.0605C25.9906 42.0605 27.0908 41.8744 27.8018 41.502C27.9202 41.4512 27.9795 41.3242 27.9795 41.1211L27.9541 39.0391V38.8613C27.9541 37.7611 27.8864 37.0332 27.751 36.6777C27.6833 36.5085 27.4082 36.373 26.9258 36.2715C26.4434 36.1699 26.0667 36.1191 25.7959 36.1191C25.7282 36.1191 25.6943 36.0133 25.6943 35.8018C25.6943 35.5902 25.7282 35.4505 25.7959 35.3828C27.9626 35.4674 29.0713 35.5098 29.1221 35.5098C29.2575 35.5098 30.1715 35.4674 31.8643 35.3828C31.8981 35.4844 31.915 35.6029 31.915 35.7383C31.915 35.9922 31.8812 36.1191 31.8135 36.1191C31.7119 36.1191 31.4792 36.1742 31.1152 36.2842C30.7513 36.3942 30.4932 36.4915 30.3408 36.5762C30.1715 36.6947 30.0869 37.2617 30.0869 38.2773C30.0869 38.6328 30.0996 39.0179 30.125 39.4326C30.1504 39.8473 30.1631 40.0716 30.1631 40.1055C30.1631 40.4102 30.2223 40.7064 30.3408 40.9941C30.4593 41.2819 30.5186 41.4512 30.5186 41.502C30.5186 41.6374 30.307 41.7897 29.8838 41.959C29.8499 41.9759 29.6849 42.0394 29.3887 42.1494C29.0924 42.2594 28.902 42.3314 28.8174 42.3652C28.7327 42.3991 28.5423 42.4626 28.2461 42.5557C27.9499 42.6488 27.7129 42.7122 27.5352 42.7461C27.3574 42.7799 27.1035 42.8307 26.7734 42.8984C26.4434 42.9661 26.1302 43.0127 25.834 43.0381C25.5378 43.0635 25.1908 43.0889 24.793 43.1143C24.3952 43.1396 23.9762 43.1523 23.5361 43.1523C21.3017 43.1523 19.4017 42.3314 17.8359 40.6895C16.2702 39.0475 15.4873 37.0925 15.4873 34.8242ZM38.4443 32.8945C37.5472 32.8945 36.8151 33.305 36.248 34.126C35.681 34.9469 35.3975 35.9499 35.3975 37.1348C35.3975 38.5228 35.7572 39.7119 36.4766 40.7021C37.196 41.6924 38.0381 42.1875 39.0029 42.1875C39.9001 42.1875 40.6364 41.7643 41.2119 40.918C41.7874 40.0716 42.0752 39.056 42.0752 37.8711C42.0752 36.5 41.7113 35.3278 40.9834 34.3545C40.2555 33.3812 39.4092 32.8945 38.4443 32.8945ZM38.7236 31.9043C40.2471 31.9043 41.5504 32.4544 42.6338 33.5547C43.7171 34.655 44.2588 35.9753 44.2588 37.5156C44.2588 39.0729 43.7298 40.4059 42.6719 41.5146C41.6139 42.6234 40.3148 43.1777 38.7744 43.1777C37.234 43.1777 35.9222 42.6234 34.8389 41.5146C33.7555 40.4059 33.2139 39.0729 33.2139 37.5156C33.2139 35.9414 33.7386 34.6126 34.7881 33.5293C35.8376 32.446 37.1494 31.9043 38.7236 31.9043ZM47.1826 40.0547V29.0605C47.1826 28.485 47.1318 27.9434 47.0303 27.4355C46.9456 27.1647 46.514 27.0293 45.7354 27.0293H45.5068C45.4053 27.0293 45.3545 26.9362 45.3545 26.75C45.3545 26.4792 45.4053 26.3438 45.5068 26.3438C46.0147 26.293 46.4844 26.2253 46.916 26.1406C47.3477 26.056 47.6862 25.9714 47.9316 25.8867C48.1771 25.8021 48.3844 25.7217 48.5537 25.6455C48.723 25.5693 48.8499 25.5059 48.9346 25.4551L49.0361 25.3789H49.0869C49.1546 25.3789 49.2223 25.4255 49.29 25.5186C49.3577 25.6117 49.4001 25.7005 49.417 25.7852C49.2308 26.3268 49.1377 27.0631 49.1377 27.9941V39.5723C49.1377 40.554 49.2054 41.3073 49.3408 41.832C49.3747 41.9505 49.5947 42.0648 50.001 42.1748C50.4072 42.2848 50.695 42.3398 50.8643 42.3398C50.915 42.3398 50.9489 42.4414 50.9658 42.6445C50.9827 42.8477 50.9743 42.9915 50.9404 43.0762C49.2477 42.9915 48.3421 42.9492 48.2236 42.9492C48.1221 42.9492 47.1996 42.9915 45.4561 43.0762C45.3883 43.0085 45.3545 42.8688 45.3545 42.6572C45.3545 42.4456 45.3883 42.3398 45.4561 42.3398C45.6592 42.3398 45.9596 42.2848 46.3574 42.1748C46.7552 42.0648 46.971 41.9505 47.0049 41.832C47.1234 41.3411 47.1826 40.7487 47.1826 40.0547ZM58.6377 25.3535C59.8565 25.3535 60.6605 25.6836 61.0498 26.3438C61.0498 27.4102 60.7451 27.9434 60.1357 27.9434C59.9157 27.9434 59.7041 27.8122 59.501 27.5498C59.2979 27.2874 59.0651 27.0208 58.8027 26.75C58.5404 26.4792 58.223 26.3438 57.8506 26.3438C57.1058 26.3438 56.5303 26.8008 56.124 27.7148C55.7178 28.6289 55.5146 29.7038 55.5146 30.9395V32.2344C55.5146 32.319 55.557 32.3613 55.6416 32.3613H58.46C58.5446 32.3613 58.5869 32.4206 58.5869 32.5391C58.5869 32.8099 58.4854 33.1484 58.2822 33.5547H55.667C55.5654 33.5547 55.5146 33.6055 55.5146 33.707V39.5723C55.5146 40.4863 55.5908 41.2396 55.7432 41.832C55.777 41.9505 55.9844 42.0648 56.3652 42.1748C56.7461 42.2848 57.0127 42.3398 57.165 42.3398C57.2158 42.3398 57.2497 42.4414 57.2666 42.6445C57.2835 42.8477 57.2751 42.9915 57.2412 43.0762C55.5485 42.9915 54.6429 42.9492 54.5244 42.9492C54.4736 42.9492 53.585 42.9915 51.8584 43.0762C51.8245 43.0423 51.7992 42.9619 51.7822 42.835C51.7653 42.708 51.7653 42.5938 51.7822 42.4922C51.7992 42.3906 51.8245 42.3398 51.8584 42.3398C52.0615 42.3398 52.3493 42.2848 52.7217 42.1748C53.0941 42.0648 53.2972 41.9505 53.3311 41.832C53.5003 41.1719 53.585 40.4186 53.585 39.5723V33.7324C53.585 33.6139 53.5426 33.5547 53.458 33.5547H52.1123C52.0615 33.5547 52.0361 33.5039 52.0361 33.4023C52.0361 33.25 52.1715 33.0384 52.4424 32.7676C52.7132 32.4967 53.001 32.3613 53.3057 32.3613H53.458C53.5426 32.3613 53.585 32.3105 53.585 32.209V31.8789C53.585 30.1016 54.1139 28.5697 55.1719 27.2832C56.2298 25.9967 57.3851 25.3535 58.6377 25.3535ZM80.1514 38.3535C80.1514 38.5397 80.0329 39.1872 79.7959 40.2959C79.5589 41.4046 79.3896 41.9844 79.2881 42.0352C78.0524 42.78 76.0296 43.1523 73.2197 43.1523C70.9853 43.1523 69.0853 42.3314 67.5195 40.6895C65.9538 39.0475 65.1709 37.0925 65.1709 34.8242C65.1709 32.4206 65.9749 30.3597 67.583 28.6416C69.1911 26.9235 71.1631 26.0645 73.499 26.0645C75.4964 26.0645 77.553 26.276 79.6689 26.6992C79.6351 28.9675 79.6182 30.1862 79.6182 30.3555C79.6182 30.6094 79.4404 30.7363 79.085 30.7363C78.9157 30.7363 78.8057 30.694 78.7549 30.6094C78.7041 30.3893 78.6406 30.165 78.5645 29.9365C78.4883 29.708 78.3275 29.4118 78.082 29.0479C77.8366 28.6839 77.5404 28.3708 77.1934 28.1084C76.8464 27.846 76.3555 27.6175 75.7207 27.4229C75.0859 27.2282 74.3708 27.1309 73.5752 27.1309C71.9163 27.1309 70.5029 27.8629 69.335 29.3271C68.167 30.7913 67.583 32.446 67.583 34.291C67.583 35.6621 67.82 36.9232 68.2939 38.0742C68.7679 39.2253 69.5169 40.1774 70.541 40.9307C71.5651 41.6839 72.7796 42.0605 74.1846 42.0605C75.8604 42.0605 77.1553 41.5697 78.0693 40.5879C78.3063 40.334 78.5137 39.9997 78.6914 39.585C78.8691 39.1702 79.0046 38.8232 79.0977 38.5439C79.1908 38.2646 79.2627 38.125 79.3135 38.125C79.415 38.125 79.5378 38.1419 79.6816 38.1758C79.8255 38.2096 79.9398 38.2435 80.0244 38.2773L80.1514 38.3535ZM82.6689 40.0547V29.0605C82.6689 28.485 82.6182 27.9434 82.5166 27.4355C82.432 27.1647 82.0003 27.0293 81.2217 27.0293H80.9932C80.8916 27.0293 80.8408 26.9362 80.8408 26.75C80.8408 26.4792 80.8916 26.3438 80.9932 26.3438C81.501 26.293 81.9707 26.2253 82.4023 26.1406C82.834 26.056 83.1725 25.9714 83.418 25.8867C83.6634 25.8021 83.8708 25.7217 84.04 25.6455C84.2093 25.5693 84.3363 25.5059 84.4209 25.4551L84.5225 25.3789H84.5732C84.641 25.3789 84.7087 25.4255 84.7764 25.5186C84.8441 25.6117 84.8864 25.7005 84.9033 25.7852C84.7171 26.3268 84.624 27.0631 84.624 27.9941V39.5723C84.624 40.554 84.6917 41.3073 84.8271 41.832C84.861 41.9505 85.0811 42.0648 85.4873 42.1748C85.8936 42.2848 86.1813 42.3398 86.3506 42.3398C86.4014 42.3398 86.4352 42.4414 86.4521 42.6445C86.4691 42.8477 86.4606 42.9915 86.4268 43.0762C84.734 42.9915 83.8285 42.9492 83.71 42.9492C83.6084 42.9492 82.6859 42.9915 80.9424 43.0762C80.8747 43.0085 80.8408 42.8688 80.8408 42.6572C80.8408 42.4456 80.8747 42.3398 80.9424 42.3398C81.1455 42.3398 81.446 42.2848 81.8438 42.1748C82.2415 42.0648 82.4574 41.9505 82.4912 41.832C82.6097 41.3411 82.6689 40.7487 82.6689 40.0547ZM97.1279 34.3418V39.4199C97.1279 40.1478 97.1872 40.791 97.3057 41.3496C97.3395 41.4681 97.4326 41.5612 97.585 41.6289C97.7373 41.6966 97.8981 41.7389 98.0674 41.7559C98.2367 41.7728 98.4059 41.7812 98.5752 41.7812L98.8037 41.8066C98.8545 41.8236 98.8799 41.9167 98.8799 42.0859C98.8799 42.1367 98.8587 42.2171 98.8164 42.3271C98.7741 42.4372 98.7275 42.4922 98.6768 42.4922C98.4229 42.5091 98.1393 42.543 97.8262 42.5938C97.513 42.6445 97.221 42.7038 96.9502 42.7715C96.6794 42.8392 96.4255 42.9069 96.1885 42.9746C95.9515 43.0423 95.7653 43.1016 95.6299 43.1523L95.4014 43.2031C95.266 43.2031 95.1982 43.0677 95.1982 42.7969V41.502L95.1475 41.375C94.0303 42.5768 92.9216 43.1777 91.8213 43.1777C91.195 43.1777 90.6576 43.0212 90.209 42.708C89.7604 42.3949 89.4303 41.9801 89.2188 41.4639C89.0072 40.9476 88.859 40.4482 88.7744 39.9658C88.6898 39.4834 88.6475 38.9798 88.6475 38.4551V35.2559C88.6475 34.5957 88.529 34.1387 88.292 33.8848C88.1227 33.6816 87.9154 33.542 87.6699 33.4658C87.4245 33.3896 87.2214 33.3516 87.0605 33.3516C86.8997 33.3516 86.8193 33.3346 86.8193 33.3008C86.8193 32.8945 86.8701 32.6829 86.9717 32.666C88.766 32.3952 89.9339 32.1751 90.4756 32.0059C90.4925 32.0059 90.5179 32.0016 90.5518 31.9932L90.6025 31.9805C90.6702 31.9805 90.7126 32.0524 90.7295 32.1963C90.7464 32.3402 90.7464 32.446 90.7295 32.5137C90.6279 33.3262 90.5771 33.9525 90.5771 34.3926V37.8203C90.5771 39.1237 90.7718 40.0843 91.1611 40.7021C91.5505 41.32 92.1852 41.6289 93.0654 41.6289C93.5732 41.6289 94.0557 41.43 94.5127 41.0322C94.9697 40.6344 95.1982 40.2917 95.1982 40.0039V35.2559C95.1982 34.5957 95.0798 34.1387 94.8428 33.8848C94.6735 33.6816 94.4661 33.542 94.2207 33.4658C93.9753 33.3896 93.7721 33.3516 93.6113 33.3516C93.4505 33.3516 93.3701 33.3346 93.3701 33.3008C93.3701 32.8945 93.4209 32.6829 93.5225 32.666C95.3167 32.3952 96.4847 32.1751 97.0264 32.0059C97.0433 32.0059 97.0687 32.0016 97.1025 31.9932L97.1533 31.9805C97.221 31.9805 97.2633 32.0524 97.2803 32.1963C97.2972 32.3402 97.2972 32.446 97.2803 32.5137C97.1787 33.3262 97.1279 33.9355 97.1279 34.3418ZM105.46 31.8789C107.085 31.8789 108.359 32.4333 109.281 33.542C110.204 34.6507 110.665 35.8314 110.665 37.084C110.665 38.6921 110.068 40.1055 108.875 41.3242C107.682 42.543 106.366 43.1523 104.927 43.1523C104.3 43.1523 103.704 43.0973 103.137 42.9873C102.57 42.8773 102.244 42.8223 102.159 42.8223C102.007 42.8223 101.816 42.8688 101.588 42.9619C101.359 43.055 101.228 43.1016 101.194 43.1016C101.127 43.1016 101.021 43.0762 100.877 43.0254C100.733 42.9746 100.661 42.9154 100.661 42.8477C100.661 42.8307 100.687 42.6911 100.737 42.4287C100.788 42.1663 100.839 41.7813 100.89 41.2734C100.94 40.7656 100.966 40.1986 100.966 39.5723V29.0605C100.966 28.485 100.915 27.9434 100.813 27.4355C100.729 27.1647 100.297 27.0293 99.5186 27.0293H99.29C99.1885 27.0293 99.1377 26.9362 99.1377 26.75C99.1377 26.4792 99.1885 26.3438 99.29 26.3438C99.7979 26.293 100.268 26.2253 100.699 26.1406C101.131 26.056 101.469 25.9714 101.715 25.8867C101.96 25.8021 102.168 25.7217 102.337 25.6455C102.506 25.5693 102.633 25.5059 102.718 25.4551L102.819 25.3789H102.87C102.938 25.3789 103.006 25.4255 103.073 25.5186C103.141 25.6117 103.183 25.7005 103.2 25.7852C103.014 26.3268 102.921 27.0631 102.921 27.9941V32.4375C102.921 32.6237 102.946 32.7168 102.997 32.7168C103.014 32.7168 103.039 32.7083 103.073 32.6914C103.31 32.5221 103.674 32.3444 104.165 32.1582C104.656 31.972 105.088 31.8789 105.46 31.8789ZM104.647 33.123C104.174 33.123 103.767 33.2542 103.429 33.5166C103.09 33.779 102.921 34.1556 102.921 34.6465V40.5625C102.921 41.0872 103.171 41.4723 103.67 41.7178C104.169 41.9632 104.749 42.0859 105.409 42.0859C106.374 42.0859 107.127 41.6289 107.669 40.7148C108.211 39.8008 108.481 38.7682 108.481 37.6172C108.481 36.2799 108.13 35.1966 107.428 34.3672C106.725 33.5378 105.799 33.123 104.647 33.123Z" fill="#05376B"/>
</svg>
