<svg width="60" height="84" fill="none" xmlns="http://www.w3.org/2000/svg"><path d="M11.056 44.263c-1.127 2.164-3.795 8.885-.345 14.386 3.98 6.33 11.937 12.843 24.104 11.048 11.753-1.75 14.513-5.317 14.904-11.555.299-4.81-2.852-4.81-3.381-5.317-.506-.506-.621-1.542.506-1.726h12.282c1.127.207 1.012 1.22.506 1.726-.506.507-3.358.484-3.381 5.317l-.023 2.555c0 1.542-.092 7.158-.092 7.158s.207 1.52-1.541 1.427c-2.254-.138-5.474.415-10.442 2.256-10.212 3.798-19.688 2.808-26.358-.3-8.073-3.774-11.707-8.446-14.053-14.776C2.11 52.066-1.8 54.344.96 50.685c1.955-2.578 4.508-7.872 5.221-9.092 0 0 2.047-3.475 3.75-4.488.758-.46.92.552 2.23 3.844.644 1.565-.207 1.542-1.104 3.314zm19.225-9.665c7.132.275 11.819 2.86 13.03 3.363.448.183.92-.915 1.188-1.715.18-.572.83-2.06.292-2.494-.47-.366-4.979-3.569-14.487-3.752h-.606c-9.53.16-14.016 3.386-14.51 3.752-.493.343.113 1.922.337 2.494.314.8.628 1.898 1.01 1.738 1.188-.526 6.01-3.157 13.163-3.409.023.023.135.023.583.023zM34 25.5c0 1.378-1.122 2.5-2.5 2.5a2.504 2.504 0 01-2.5-2.5c0-1.378 1.122-2.5 2.5-2.5s2.5 1.122 2.5 2.5zm-1.766-9.48s7.57 10.703 8.134 10.837c.987.2 1.316.2 3.056-.067s1.457-1.45 1.528-1.85c.07-.402.211-1.383-.846-.982-1.6.602-3.691 1.115-3.691 1.115L23.325.367s-.588-.825-1.81 0c-.965.669-.494 1.516.752 2.965 1.269 1.45 9.967 12.688 9.967 12.688z" fill="#05376B"/><path d="M29.76 16.02s-7.566 10.703-8.13 10.837c-.963.2-1.316.2-3.054-.067-1.74-.267-1.457-1.45-1.528-1.85-.07-.402-.211-1.383.846-.982 1.598.602 3.69 1.115 3.69 1.115L38.665.367s.588-.825 1.81 0c.986.669.493 1.516-.752 2.965-1.27 1.45-9.963 12.688-9.963 12.688zm22.324 28.573c.253 2.263-.092 3.407.967 3.407 1.06 0 1.128-.925 1.428-1.776.3-.876 1.358-5.378 3.523-6.425 1.244-.608 1.382-2.652.092-2.7-1.29-.05-3.247 1.313-5.895.072-.737-.34-1.06-.34-1.75 1.606 0 0-.737 1.996-.322 2.215.667.34 1.657.852 1.957 3.601zm-15.948 1.976c-.62-2.934-1.424-4.904-4.088-4.904-2.618 0-4.754 2.015-4.754 7.12 0 6.383 2.366 8.33 5.03 7.905 2.663-.425 3.375-2.306 4.455-4.523 0 0 .39-.246.987 0s.804.582.666.829c-1.447 4.165-3.881 5.934-6.683 6-5.304.135-8.749-4.075-8.749-9.65C23 43.613 27.019 39 31.841 39c1.286 0 2.411.313 3.606.873.367.18 1.607 1.277 1.997 1.434.575.246.919-.157 1.264-.74 0 0 .183-.313.62-.201.413.112.78.358.642.605l-2.503 5.687c-.826.112-1.331-.09-1.331-.09zM35.173 84c2.845 0 1.385-1.141 1.385-1.141l-2.25-1.79 2.67-5.864s.174-.291-.47-.18c-.94.157-2.423.247-3.314.27-.42 0-.494.2-.494.2l-1.188 3.022-1.212-3.021s-.074-.18-.494-.202c-.89-.022-2.375-.09-3.315-.268-.643-.112-.47.179-.47.179l2.672 5.863-2.251 1.79S24.982 84 27.827 84h7.346zM21.151 62.433l1.632 4.396s.113.247.476.382c.906.314 2.424.74 3.285.785.612.044.43-.27.43-.27l-1.268-3.297s-10.968-29.045-12.6-34.428c-1.609-5.383-.906-5.787-.816-8.276.091-2.086-1.903-1.996-2.696-1.211-.182.179-5.666 6.28-7.07 8.164-1.406 1.884.135 3.072 3.217 1.884 2.538-.965 3.83 2.287 3.83 2.287L21.99 64.654" fill="#05376B"/><path d="M40.785 62.533l-1.617 4.406s-.114.247-.478.382c-.91.315-2.367.607-3.232.675-.615.045-.433-.27-.433-.27l1.184-3.192s11.018-29.114 12.657-34.51c1.616-5.395.91-5.8.797-8.295-.091-2.091 1.912-2.001 2.709-1.214.182.18 5.69 6.295 7.102 8.183 1.412 1.889-.136 3.08-3.232 1.889-2.55-.967-3.848 2.293-3.848 2.293L39.942 64.758" fill="#05376B"/></svg>