<svg width="127" height="44" fill="none" xmlns="http://www.w3.org/2000/svg"><path fill-rule="evenodd" clip-rule="evenodd" d="M5.546 1.293c1.168.034 2.124.05 2.869.05.745 0 1.701-.016 2.87-.05a98.904 98.904 0 012.716-.05c.423 0 1.007-.094 1.752-.28l.482 3.63c-.118.12-.321.178-.609.178-.152 0-.237-.042-.254-.126-.237-.948-.529-1.562-.876-1.841-.347-.28-1.003-.42-1.968-.42-1.794 0-2.725.128-2.793.382-.152.541-.228 1.388-.228 2.539v9.166c0 .982.076 1.769.228 2.361.034.119.271.233.711.343.44.11.745.165.914.165.068 0 .102.127.102.38 0 .136-.017.255-.05.356-1.694-.085-2.675-.127-2.946-.127-.085 0-1.1.042-3.047.127-.068-.067-.102-.195-.102-.38 0-.238.034-.356.102-.356.22 0 .546-.05.977-.152.432-.102.673-.22.724-.356.119-.457.178-1.21.178-2.26V5.381c0-1.473-.076-2.345-.229-2.615-.135-.254-1.05-.381-2.742-.381-.965 0-1.62.14-1.968.419-.347.279-.639.893-.876 1.84-.017.085-.101.127-.254.127-.287 0-.49-.059-.609-.177L1.103.963c.744.186 1.328.28 1.751.28.644 0 1.54.016 2.692.05zm19.021 5.586c1.134 0 1.947.406 2.438 1.219.49.812.736 2.065.736 3.757v2.743c0 .964.068 1.71.203 2.234.034.119.254.233.66.343.407.11.695.165.864.165.05 0 .084.101.101.305.017.203.009.346-.025.431a180.16 180.16 0 00-2.717-.127c-.05 0-.94.042-2.666.127-.068-.067-.101-.207-.101-.419 0-.211.033-.317.101-.317.203 0 .487-.055.85-.165.365-.11.564-.224.597-.343.119-.49.178-1.083.178-1.777v-2.692c0-1.557-.216-2.602-.647-3.135-.432-.534-1.096-.8-1.994-.8-.507 0-1.01.199-1.51.596-.5.398-.75.75-.75 1.054v4.494c0 .982.068 1.735.204 2.26.034.119.254.233.66.343.406.11.694.165.863.165.051 0 .085.101.102.305.017.203.008.346-.025.431a180.16 180.16 0 00-2.717-.127c-.102 0-1.024.042-2.768.127-.068-.067-.102-.207-.102-.419 0-.211.034-.317.102-.317.203 0 .504-.055.901-.165.398-.11.614-.224.648-.343.118-.49.178-1.075.178-1.752V4.06c0-.575-.051-1.117-.153-1.624-.084-.271-.516-.407-1.295-.407h-.228c-.102 0-.152-.093-.152-.279 0-.27.05-.406.152-.406.508-.051.977-.119 1.41-.203.43-.085.77-.17 1.015-.254.245-.085.453-.165.622-.241.169-.077.288-.14.355-.19l.127-.077h.051c.068 0 .135.046.203.14.068.093.11.182.127.266-.186.542-.28 1.278-.28 2.21v5.56c0 .067.018.101.051.101.017 0 .043-.017.077-.05.372-.407.901-.796 1.587-1.168.685-.373 1.341-.56 1.967-.56zm10.998.99c-.88 0-1.553.377-2.018 1.13-.466.753-.698 1.375-.698 1.866 0 .119.05.178.152.178h4.951c.085 0 .127-.085.127-.254 0-.542-.228-1.164-.685-1.866-.457-.703-1.067-1.054-1.829-1.054zm.254-.94c.779 0 1.464.149 2.057.445.592.296 1.045.677 1.358 1.143.313.465.542.939.686 1.421a5 5 0 01.216 1.435c0 .339-.051.546-.153.622-.101.076-.296.114-.584.114h-6.398c-.135 0-.203.043-.203.127 0 1.067.322 2.048.965 2.946.643.897 1.574 1.345 2.793 1.345.355 0 .694-.034 1.015-.101.322-.068.597-.148.826-.241a4.764 4.764 0 001.002-.546l.178-.127c.102 0 .153.11.153.33 0 .135-.051.288-.153.457-.338.474-.838.901-1.498 1.282-.66.38-1.38.571-2.158.571-1.405 0-2.611-.529-3.618-1.587-1.007-1.058-1.511-2.348-1.511-3.872 0-1.777.478-3.182 1.435-4.214.956-1.033 2.154-1.55 3.592-1.55zm13.72-5.61c.405 0 1.455-.043 3.148-.128.033.068.046.208.038.42-.009.21-.038.317-.09.317-.118 0-.279.017-.482.05a2.022 2.022 0 00-.66.254c-.237.136-.355.314-.355.534 0 .49 1.066 3.343 3.199 8.556.457 1.151.82 2.048 1.092 2.692.05.084.122.106.215.063a.35.35 0 00.191-.19l3.809-9.192c.321-.83.482-1.422.482-1.777 0-.237-.135-.44-.406-.61a2.176 2.176 0 00-.775-.317 3.674 3.674 0 00-.596-.063c-.068 0-.102-.106-.102-.318 0-.211.034-.35.102-.419 1.574.085 2.48.127 2.716.127.017 0 .872-.042 2.565-.127.034.102.05.229.05.381 0 .237-.033.356-.1.356-.763 0-1.27.237-1.524.71-.39.712-.804 1.583-1.244 2.616L55.733 17.39c-.22.558-.516.838-.888.838a.263.263 0 01-.254-.153L49.386 4.95c-.423-1.117-.804-1.93-1.143-2.437-.118-.186-.364-.33-.736-.432-.373-.101-.669-.152-.889-.152-.068 0-.101-.11-.101-.33 0-.203.033-.339.101-.407.271.017.593.034.965.051.372.017.707.034 1.003.051.296.017.614.025.952.025zM65.1 3.856a1.292 1.292 0 01-.356-.914c0-.355.123-.656.368-.901.246-.245.546-.368.902-.368.355 0 .656.123.901.368.246.245.368.546.368.901 0 .356-.123.656-.368.902a1.226 1.226 0 01-.901.368c-.356 0-.66-.119-.914-.356zm2.082 10.715c0 .982.067 1.735.203 2.26.034.119.254.233.66.343.406.11.694.165.863.165.051 0 .085.101.102.305.017.203.008.346-.026.431a180.3 180.3 0 00-2.716-.127c-.119 0-1.041.042-2.768.127-.068-.067-.102-.207-.102-.419 0-.211.034-.317.102-.317.203 0 .504-.055.901-.165.398-.11.614-.224.648-.343.118-.49.178-1.083.178-1.777v-4.8c0-.66-.119-1.116-.356-1.37a1.296 1.296 0 00-.622-.42 2.143 2.143 0 00-.61-.113c-.16 0-.24-.017-.24-.051 0-.406.05-.618.152-.635 1.794-.27 2.962-.49 3.504-.66l.05-.026h.077c.067 0 .11.072.127.216a.968.968 0 010 .318 14.868 14.868 0 00-.127 1.828v5.23zm7.85-7.642c1.861 0 3.148.431 3.859 1.295 0 1.134-.313 1.7-.94 1.7-.288 0-.508-.063-.66-.19-.152-.127-.347-.36-.584-.698-.525-.779-1.151-1.168-1.879-1.168-.694 0-1.324.33-1.891.99-.568.66-.851 1.642-.851 2.946 0 1.354.334 2.48 1.003 3.377.668.897 1.595 1.345 2.78 1.345a4.92 4.92 0 001.016-.101 4.86 4.86 0 00.825-.241 4.757 4.757 0 001.003-.546l.178-.127c.101 0 .152.11.152.33 0 .135-.05.288-.152.457-.339.474-.838.901-1.498 1.282-.66.38-1.38.571-2.159.571-1.405 0-2.61-.529-3.618-1.587-1.007-1.058-1.51-2.348-1.51-3.872 0-1.557.423-2.907 1.269-4.05.846-1.142 2.065-1.713 3.656-1.713zm6.198 1.574h-1.47c-.085 0-.127-.178-.127-.533 0-.102.008-.161.025-.178.491-.22 1.024-.669 1.6-1.346.186-.22.368-.47.546-.749.178-.28.326-.52.444-.723.119-.204.178-.314.178-.33.508 0 .761.042.761.126v2.514c.44 0 1.11.004 2.006.013l1.422.013c.136 0 .203.076.203.228 0 .305-.084.626-.253.965h-3.377v6.22c0 .678.173 1.22.52 1.626.347.406.8.609 1.358.609.508 0 1.033-.16 1.575-.482.05-.034.127.038.228.215.102.178.144.275.127.292-.254.271-.643.538-1.168.8a3.592 3.592 0 01-1.625.394c-.846 0-1.553-.28-2.12-.838-.567-.559-.85-1.354-.85-2.387v-6.45zm11.862-.61c-.897 0-1.63.411-2.197 1.232-.567.82-.85 1.824-.85 3.009 0 1.388.36 2.577 1.079 3.567.72.99 1.561 1.486 2.526 1.486.898 0 1.634-.424 2.21-1.27.575-.846.863-1.862.863-3.047 0-1.371-.364-2.543-1.092-3.517-.728-.973-1.574-1.46-2.54-1.46zm.28-.99c1.522 0 2.826.55 3.91 1.65 1.083 1.1 1.624 2.421 1.624 3.962 0 1.557-.529 2.89-1.587 3.999-1.058 1.108-2.357 1.663-3.897 1.663-1.54 0-2.852-.555-3.936-1.663-1.083-1.11-1.625-2.442-1.625-4 0-1.574.525-2.902 1.575-3.986 1.049-1.083 2.36-1.625 3.935-1.625zm13.689 0c.998 0 1.658.246 1.98.737 0 .592-.093 1.024-.279 1.295-.187.27-.415.406-.686.406-.305 0-.584-.144-.838-.432-.254-.288-.601-.431-1.041-.431-.524 0-.982.245-1.371.736-.389.49-.584 1.007-.584 1.549v3.808c0 .982.068 1.735.203 2.26.034.119.258.233.673.343.415.11.707.165.876.165.051 0 .085.101.102.305.017.203.008.346-.026.431a162.97 162.97 0 00-2.742-.127c-.101 0-1.024.042-2.767.127-.068-.067-.102-.207-.102-.419 0-.211.034-.317.102-.317.203 0 .503-.055.901-.165.398-.11.613-.224.647-.343.119-.49.178-1.083.178-1.777v-4.8c0-.66-.118-1.116-.355-1.37a1.301 1.301 0 00-.622-.42 2.15 2.15 0 00-.61-.113c-.161 0-.241-.017-.241-.051 0-.406.051-.618.152-.635 1.795-.27 2.963-.49 3.504-.66a.338.338 0 00.076-.013l.051-.013c.068 0 .11.072.127.216a.962.962 0 010 .318l-.152 1.27c.304-.458.723-.885 1.257-1.283.533-.398 1.062-.597 1.587-.597zm4.472-3.047a1.292 1.292 0 01-.355-.914c0-.355.122-.656.368-.901.245-.245.546-.368.901-.368.356 0 .656.123.902.368.245.245.368.546.368.901 0 .356-.123.656-.368.902a1.227 1.227 0 01-.902.368c-.355 0-.66-.119-.914-.356zm2.082 10.715c0 .982.068 1.735.203 2.26.034.119.254.233.66.343.407.11.695.165.864.165.051 0 .084.101.101.305.017.203.009.346-.025.431a179.963 179.963 0 00-2.717-.127c-.118 0-1.041.042-2.767.127-.068-.067-.102-.207-.102-.419 0-.211.034-.317.102-.317.203 0 .503-.055.901-.165.398-.11.614-.224.647-.343.119-.49.178-1.083.178-1.777v-4.8c0-.66-.118-1.116-.355-1.37a1.301 1.301 0 00-.622-.42 2.15 2.15 0 00-.61-.113c-.161 0-.241-.017-.241-.051 0-.406.051-.618.152-.635 1.795-.27 2.963-.49 3.504-.66l.051-.026h.076c.068 0 .11.072.127.216a.962.962 0 010 .318 15.007 15.007 0 00-.127 1.828v5.23zm5.539 1.803c.288.237.66.355 1.117.355.457 0 .898-.14 1.321-.419.423-.279.635-.562.635-.85v-2.615c-.136.067-.466.186-.991.355-.524.17-.935.318-1.231.444a2.65 2.65 0 00-.863.635 1.45 1.45 0 00-.419 1.029c0 .457.144.812.431 1.066zm2.387-9.445c.931 0 1.6.224 2.006.673.406.448.609 1.172.609 2.17v5.866c0 .355.093.651.28.888.186.237.44.356.761.356.237 0 .533-.119.889-.356.068 0 .101.068.101.203 0 .22-.042.398-.126.534-.694.592-1.287.888-1.778.888-.389 0-.762-.16-1.117-.482-.355-.322-.601-.66-.736-1.016-.017 0-.081.055-.191.165a4.77 4.77 0 01-.444.381 7.605 7.605 0 01-.648.445 3.67 3.67 0 01-.863.38c-.33.102-.664.153-1.003.153-.778 0-1.422-.208-1.929-.622-.508-.415-.762-1.037-.762-1.867 0-.372.093-.723.279-1.053.186-.33.406-.601.66-.813.254-.211.601-.427 1.041-.647a10.1 10.1 0 011.13-.495c.313-.11.724-.25 1.232-.42.507-.169.863-.295 1.066-.38.152-.05.229-.178.229-.381V9.596c0-.542-.17-.96-.508-1.257a1.79 1.79 0 00-1.219-.444c-.508 0-.931.173-1.27.52-.338.347-.507.8-.507 1.358 0 .593-.347.89-1.041.89-.474 0-.804-.162-.991-.483 0-.728.534-1.452 1.6-2.171 1.066-.72 2.15-1.08 3.25-1.08zM15.487 34.824c0-2.403.804-4.464 2.412-6.182 1.608-1.718 3.58-2.578 5.916-2.578 1.202 0 3.208.381 6.018 1.143.068 1.93.102 2.98.102 3.148 0 .254-.178.381-.534.381-.169 0-.279-.042-.33-.127-.457-2.319-2.183-3.478-5.18-3.478-1.692 0-3.105.72-4.24 2.158-1.134 1.439-1.7 3.174-1.7 5.205 0 1.88.621 3.61 1.865 5.193 1.245 1.582 2.806 2.373 4.685 2.373 1.49 0 2.59-.186 3.3-.558.12-.05.179-.178.179-.38l-.026-2.083v-.178c0-1.1-.068-1.828-.203-2.183-.068-.17-.343-.305-.825-.406-.483-.102-.86-.153-1.13-.153-.068 0-.102-.106-.102-.317 0-.212.034-.352.102-.42 2.167.085 3.275.128 3.326.128.136 0 1.05-.043 2.742-.127.034.101.051.22.051.355 0 .254-.034.381-.101.381-.102 0-.335.055-.699.165-.364.11-.622.208-.774.292-.17.119-.254.686-.254 1.701 0 .356.013.74.038 1.156.025.414.038.639.038.672 0 .305.06.601.178.89.118.287.178.456.178.507 0 .135-.212.288-.635.457-.034.017-.2.08-.495.19-.297.11-.487.182-.572.216a9.522 9.522 0 01-.57.19 6.692 6.692 0 01-.712.191 80.85 80.85 0 00-.762.152c-.33.068-.643.115-.939.14-.296.026-.643.05-1.041.076-.398.026-.817.038-1.257.038-2.234 0-4.134-.82-5.7-2.462-1.566-1.642-2.349-3.597-2.349-5.866zm22.957-1.93c-.897 0-1.629.411-2.196 1.232-.567.82-.85 1.824-.85 3.009 0 1.388.36 2.577 1.079 3.567.719.99 1.561 1.486 2.526 1.486.897 0 1.633-.424 2.209-1.27.575-.846.863-1.862.863-3.047 0-1.371-.364-2.543-1.092-3.517-.727-.973-1.574-1.46-2.539-1.46zm.28-.99c1.523 0 2.826.55 3.91 1.65 1.083 1.101 1.625 2.421 1.625 3.962 0 1.557-.53 2.89-1.587 3.999-1.058 1.108-2.357 1.663-3.898 1.663-1.54 0-2.852-.555-3.935-1.663-1.084-1.11-1.625-2.442-1.625-4 0-1.574.525-2.902 1.574-3.986 1.05-1.083 2.361-1.625 3.936-1.625zm8.459 8.15V29.06c0-.575-.051-1.117-.153-1.624-.084-.271-.516-.407-1.295-.407h-.228c-.102 0-.152-.093-.152-.279 0-.27.05-.406.152-.406.508-.051.977-.119 1.409-.203a7.94 7.94 0 001.016-.254c.245-.085.452-.165.622-.242.169-.076.296-.14.38-.19l.102-.076h.05c.069 0 .136.046.204.14.068.093.11.182.127.266-.186.542-.28 1.278-.28 2.21v11.577c0 .982.068 1.735.204 2.26.034.118.254.233.66.343.406.11.694.165.863.165.051 0 .085.101.102.304.017.204.008.348-.026.432a180.16 180.16 0 00-2.716-.127c-.102 0-1.024.043-2.768.127-.068-.068-.102-.207-.102-.419 0-.211.034-.317.102-.317.203 0 .504-.055.901-.165.398-.11.614-.224.648-.343.118-.49.178-1.083.178-1.777zm11.455-14.7c1.218 0 2.023.33 2.412.99 0 1.066-.305 1.6-.914 1.6-.22 0-.432-.132-.635-.394a9.597 9.597 0 00-.698-.8 1.277 1.277 0 00-.952-.406c-.745 0-1.32.457-1.727 1.37-.406.915-.61 1.99-.61 3.226v1.294c0 .085.043.127.128.127h2.818c.085 0 .127.06.127.178 0 .27-.102.61-.305 1.016h-2.615c-.102 0-.152.05-.152.152v5.865c0 .914.076 1.668.228 2.26.034.118.241.233.622.343.381.11.648.165.8.165.05 0 .085.101.102.304.016.204.008.348-.026.432a180.16 180.16 0 00-2.717-.127c-.05 0-.939.043-2.666.127-.033-.034-.059-.114-.076-.241a1.162 1.162 0 010-.343c.017-.101.043-.152.076-.152.204 0 .491-.055.864-.165.372-.11.575-.224.61-.343.168-.66.253-1.413.253-2.26v-5.84c0-.118-.042-.177-.127-.177h-1.346c-.05 0-.076-.051-.076-.153 0-.152.136-.364.406-.634.271-.271.559-.407.864-.407h.152c.085 0 .127-.05.127-.152v-.33c0-1.777.529-3.31 1.587-4.596 1.058-1.286 2.213-1.93 3.466-1.93zm21.513 13c0 .186-.118.833-.355 1.942s-.406 1.688-.508 1.74c-1.236.744-3.258 1.116-6.068 1.116-2.235 0-4.135-.82-5.7-2.462-1.566-1.642-2.35-3.597-2.35-5.866 0-2.403.805-4.464 2.413-6.182 1.608-1.718 3.58-2.578 5.916-2.578 1.997 0 4.054.212 6.17.635-.034 2.268-.05 3.487-.05 3.656 0 .254-.179.381-.534.381-.17 0-.28-.042-.33-.127a7.393 7.393 0 00-.19-.673c-.077-.228-.237-.524-.483-.888a3.908 3.908 0 00-.889-.94c-.347-.262-.837-.49-1.472-.685-.635-.195-1.35-.292-2.146-.292-1.659 0-3.072.732-4.24 2.196-1.168 1.464-1.752 3.119-1.752 4.964 0 1.371.237 2.632.71 3.783a6.618 6.618 0 002.248 2.857c1.024.753 2.239 1.13 3.644 1.13 1.675 0 2.97-.491 3.884-1.473.237-.254.445-.588.622-1.003.178-.415.314-.762.407-1.041.093-.28.165-.419.216-.419.101 0 .224.017.368.05.144.035.258.069.342.102l.127.076zm2.518 1.7V29.06c0-.575-.05-1.117-.152-1.624-.085-.271-.517-.407-1.295-.407h-.229c-.101 0-.152-.093-.152-.279 0-.27.05-.406.152-.406a15.54 15.54 0 001.41-.203 8.13 8.13 0 001.015-.254 7.34 7.34 0 00.622-.242c.17-.076.296-.14.38-.19l.102-.076h.051c.068 0 .136.046.203.14.068.093.11.182.127.266-.186.542-.279 1.278-.279 2.21v11.577c0 .982.068 1.735.203 2.26.034.118.254.233.66.343.407.11.694.165.864.165.05 0 .084.101.101.304.017.204.009.348-.025.432a180.23 180.23 0 00-2.717-.127c-.102 0-1.024.043-2.768.127-.067-.068-.101-.207-.101-.419 0-.211.034-.317.101-.317.204 0 .504-.055.902-.165.398-.11.613-.224.647-.343.119-.49.178-1.083.178-1.777zm14.459-5.712v5.078c0 .728.06 1.371.178 1.93.034.118.127.211.279.279.152.068.313.11.482.127.17.017.339.025.508.025l.229.026c.05.017.076.11.076.279 0 .05-.021.131-.064.241-.042.11-.088.165-.14.165a10.608 10.608 0 00-1.727.28c-.27.067-.523.135-.76.203a7.714 7.714 0 00-.56.177l-.228.051c-.135 0-.203-.135-.203-.406v-1.295l-.05-.127c-1.118 1.202-2.226 1.803-3.327 1.803-.626 0-1.163-.157-1.612-.47a2.76 2.76 0 01-.99-1.244 7.273 7.273 0 01-.445-1.498 8.735 8.735 0 01-.127-1.51v-3.2c0-.66-.118-1.117-.355-1.371a1.296 1.296 0 00-.622-.42 2.141 2.141 0 00-.61-.113c-.16 0-.24-.017-.24-.051 0-.407.05-.618.152-.635 1.794-.27 2.962-.49 3.504-.66a.352.352 0 00.076-.013l.05-.012c.068 0 .11.071.127.215a.968.968 0 010 .318c-.101.812-.152 1.438-.152 1.879v3.427c0 1.304.195 2.264.584 2.882.39.618 1.024.927 1.904.927.508 0 .99-.199 1.448-.597.457-.398.685-.74.685-1.028v-4.748c0-.66-.118-1.117-.355-1.371a1.296 1.296 0 00-.622-.42 2.142 2.142 0 00-.61-.113c-.16 0-.24-.017-.24-.051 0-.407.05-.618.151-.635 1.795-.27 2.963-.49 3.504-.66a.35.35 0 00.077-.013l.05-.012c.068 0 .11.071.127.215a.968.968 0 010 .318c-.101.812-.152 1.421-.152 1.828zm8.332-2.463c1.625 0 2.899.554 3.821 1.663.923 1.109 1.384 2.29 1.384 3.542 0 1.608-.597 3.021-1.79 4.24-1.193 1.219-2.509 1.828-3.948 1.828a9.38 9.38 0 01-1.79-.165c-.567-.11-.893-.165-.978-.165-.152 0-.343.047-.571.14-.229.093-.36.14-.394.14a1.09 1.09 0 01-.317-.077c-.144-.05-.216-.11-.216-.177 0-.017.026-.157.076-.42.051-.262.102-.647.153-1.155.05-.507.076-1.074.076-1.7V29.06c0-.576-.051-1.118-.153-1.625-.084-.271-.516-.407-1.294-.407h-.229c-.102 0-.152-.093-.152-.279 0-.27.05-.406.152-.406.508-.051.978-.119 1.409-.203.432-.085.77-.17 1.016-.254a7.34 7.34 0 00.622-.242c.169-.076.296-.14.381-.19l.101-.076h.051c.068 0 .136.046.203.14a.69.69 0 01.127.266c-.186.542-.279 1.278-.279 2.21v4.442c0 .187.025.28.076.28a.195.195 0 00.076-.026c.237-.169.601-.347 1.092-.533.491-.186.923-.28 1.295-.28zm-.813 1.244c-.473 0-.88.131-1.218.394-.339.262-.508.639-.508 1.13v5.916c0 .524.25.91.749 1.155s1.079.368 1.739.368c.965 0 1.718-.457 2.26-1.371.542-.914.812-1.947.812-3.098 0-1.337-.351-2.42-1.053-3.25-.703-.83-1.629-1.244-2.781-1.244z" fill="#05376B"/></svg>